%TF.GenerationSoftware,KiCad,Pcbnew,9.0.7*%
%TF.CreationDate,2026-01-31T21:14:52+02:00*%
%TF.ProjectId,Hackpad,4861636b-7061-4642-9e6b-696361645f70,rev?*%
%TF.SameCoordinates,Original*%
%TF.FileFunction,Soldermask,Top*%
%TF.FilePolarity,Negative*%
%FSLAX46Y46*%
G04 Gerber Fmt 4.6, Leading zero omitted, Abs format (unit mm)*
G04 Created by KiCad (PCBNEW 9.0.7) date 2026-01-31 21:14:52*
%MOMM*%
%LPD*%
G01*
G04 APERTURE LIST*
G04 Aperture macros list*
%AMRoundRect*
0 Rectangle with rounded corners*
0 $1 Rounding radius*
0 $2 $3 $4 $5 $6 $7 $8 $9 X,Y pos of 4 corners*
0 Add a 4 corners polygon primitive as box body*
4,1,4,$2,$3,$4,$5,$6,$7,$8,$9,$2,$3,0*
0 Add four circle primitives for the rounded corners*
1,1,$1+$1,$2,$3*
1,1,$1+$1,$4,$5*
1,1,$1+$1,$6,$7*
1,1,$1+$1,$8,$9*
0 Add four rect primitives between the rounded corners*
20,1,$1+$1,$2,$3,$4,$5,0*
20,1,$1+$1,$4,$5,$6,$7,0*
20,1,$1+$1,$6,$7,$8,$9,0*
20,1,$1+$1,$8,$9,$2,$3,0*%
G04 Aperture macros list end*
%ADD10RoundRect,0.250000X0.550000X-0.550000X0.550000X0.550000X-0.550000X0.550000X-0.550000X-0.550000X0*%
%ADD11C,1.600000*%
%ADD12C,1.700000*%
%ADD13C,4.000000*%
%ADD14C,2.200000*%
%ADD15RoundRect,0.250000X-0.550000X0.550000X-0.550000X-0.550000X0.550000X-0.550000X0.550000X0.550000X0*%
%ADD16RoundRect,0.250000X-0.550000X-0.550000X0.550000X-0.550000X0.550000X0.550000X-0.550000X0.550000X0*%
%ADD17R,1.700000X1.700000*%
%ADD18O,1.700000X1.700000*%
%ADD19R,2.000000X2.000000*%
%ADD20C,2.000000*%
%ADD21R,3.200000X2.000000*%
G04 APERTURE END LIST*
D10*
%TO.C,D11*%
X133400000Y-99220000D03*
D11*
X133400000Y-91600000D03*
%TD*%
D12*
%TO.C,SW9*%
X99695000Y-95250000D03*
D13*
X104775000Y-95250000D03*
D12*
X109855000Y-95250000D03*
D14*
X107315000Y-90170000D03*
X100965000Y-92710000D03*
%TD*%
D10*
%TO.C,D1*%
X114400000Y-60820000D03*
D11*
X114400000Y-53200000D03*
%TD*%
D12*
%TO.C,SW3*%
X137795000Y-57150000D03*
D13*
X142875000Y-57150000D03*
D12*
X147955000Y-57150000D03*
D14*
X145415000Y-52070000D03*
X139065000Y-54610000D03*
%TD*%
D10*
%TO.C,D4*%
X95200000Y-80420000D03*
D11*
X95200000Y-72800000D03*
%TD*%
D10*
%TO.C,D2*%
X133400000Y-60810000D03*
D11*
X133400000Y-53190000D03*
%TD*%
D12*
%TO.C,SW13*%
X80645000Y-57150000D03*
D13*
X85725000Y-57150000D03*
D12*
X90805000Y-57150000D03*
D14*
X88265000Y-52070000D03*
X81915000Y-54610000D03*
%TD*%
D10*
%TO.C,D10*%
X114200000Y-99220000D03*
D11*
X114200000Y-91600000D03*
%TD*%
D10*
%TO.C,D6*%
X114600000Y-80410000D03*
D11*
X114600000Y-72790000D03*
%TD*%
D12*
%TO.C,SW5*%
X99695000Y-76200000D03*
D13*
X104775000Y-76200000D03*
D12*
X109855000Y-76200000D03*
D14*
X107315000Y-71120000D03*
X100965000Y-73660000D03*
%TD*%
D15*
%TO.C,D9*%
X95400000Y-90980000D03*
D11*
X95400000Y-98600000D03*
%TD*%
D12*
%TO.C,SW2*%
X118745000Y-57150000D03*
D13*
X123825000Y-57150000D03*
D12*
X128905000Y-57150000D03*
D14*
X126365000Y-52070000D03*
X120015000Y-54610000D03*
%TD*%
D12*
%TO.C,SW6*%
X118745000Y-76200000D03*
D13*
X123825000Y-76200000D03*
D12*
X128905000Y-76200000D03*
D14*
X126365000Y-71120000D03*
X120015000Y-73660000D03*
%TD*%
D10*
%TO.C,D7*%
X134000000Y-80620000D03*
D11*
X134000000Y-73000000D03*
%TD*%
D12*
%TO.C,SW8*%
X80645000Y-95250000D03*
D13*
X85725000Y-95250000D03*
D12*
X90805000Y-95250000D03*
D14*
X88265000Y-90170000D03*
X81915000Y-92710000D03*
%TD*%
D16*
%TO.C,D12*%
X139200000Y-85800000D03*
D11*
X146820000Y-85800000D03*
%TD*%
D17*
%TO.C,J1*%
X91650000Y-43420000D03*
D18*
X91650000Y-40880000D03*
X91650000Y-38340000D03*
X91650000Y-35800000D03*
%TD*%
D12*
%TO.C,SW11*%
X137795000Y-95250000D03*
D13*
X142875000Y-95250000D03*
D12*
X147955000Y-95250000D03*
D14*
X145415000Y-90170000D03*
X139065000Y-92710000D03*
%TD*%
D16*
%TO.C,D8*%
X114590000Y-66600000D03*
D11*
X122210000Y-66600000D03*
%TD*%
D10*
%TO.C,D5*%
X95000000Y-61810000D03*
D11*
X95000000Y-54190000D03*
%TD*%
D16*
%TO.C,D3*%
X138980000Y-66400000D03*
D11*
X146600000Y-66400000D03*
%TD*%
D12*
%TO.C,SW4*%
X80645000Y-76200000D03*
D13*
X85725000Y-76200000D03*
D12*
X90805000Y-76200000D03*
D14*
X88265000Y-71120000D03*
X81915000Y-73660000D03*
%TD*%
D12*
%TO.C,SW10*%
X118745000Y-95250000D03*
D13*
X123825000Y-95250000D03*
D12*
X128905000Y-95250000D03*
D14*
X126365000Y-90170000D03*
X120015000Y-92710000D03*
%TD*%
D19*
%TO.C,SW17*%
X135518750Y-38100000D03*
D20*
X135518750Y-43100000D03*
X135518750Y-40600000D03*
D21*
X143018750Y-35000000D03*
X143018750Y-46200000D03*
D20*
X150018750Y-43100000D03*
X150018750Y-38100000D03*
%TD*%
D12*
%TO.C,SW7*%
X137795000Y-76200000D03*
D13*
X142875000Y-76200000D03*
D12*
X147955000Y-76200000D03*
D14*
X145415000Y-71120000D03*
X139065000Y-73660000D03*
%TD*%
D12*
%TO.C,SW1*%
X99695000Y-57150000D03*
D13*
X104775000Y-57150000D03*
D12*
X109855000Y-57150000D03*
D14*
X107315000Y-52070000D03*
X100965000Y-54610000D03*
%TD*%
M02*
