M48
; DRILL file {KiCad 9.0.7} date 2026-01-31T21:15:10+0200
; FORMAT={-:-/ absolute / metric / decimal}
; #@! TF.CreationDate,2026-01-31T21:15:10+02:00
; #@! TF.GenerationSoftware,Kicad,Pcbnew,9.0.7
; #@! TF.FileFunction,Plated,1,2,PTH
FMAT,2
METRIC
; #@! TA.AperFunction,Plated,PTH,ViaDrill
T1C0.300
; #@! TA.AperFunction,Plated,PTH,ComponentDrill
T2C0.800
; #@! TA.AperFunction,Plated,PTH,ComponentDrill
T3C1.000
; #@! TA.AperFunction,Plated,PTH,ComponentDrill
T4C1.500
%
G90
G05
T1
X58.1Y-35.72
X61.11Y-40.85
X70.43Y-42.02
X71.27Y-49.89
X76.19Y-43.4
X76.46Y-45.92
X78.31Y-42.57
X78.66Y-48.41
X80.09Y-50.97
X82.941Y-36.619
X84.17Y-35.42
X86.59Y-39.42
X86.62Y-44.98
X88.75Y-43.34
X108.26Y-49.24
X115.101Y-70.44
X118.78Y-80.02
X128.92Y-74.54
T2
X95.0Y-54.19
X95.0Y-61.81
X95.2Y-72.8
X95.2Y-80.42
X95.4Y-90.98
X95.4Y-98.6
X114.2Y-91.6
X114.2Y-99.22
X114.4Y-53.2
X114.4Y-60.82
X114.59Y-66.6
X114.6Y-72.79
X114.6Y-80.41
X122.21Y-66.6
X133.4Y-53.19
X133.4Y-60.81
X133.4Y-91.6
X133.4Y-99.22
X134.0Y-73.0
X134.0Y-80.62
X138.98Y-66.4
X139.2Y-85.8
X146.6Y-66.4
X146.82Y-85.8
T3
X91.65Y-35.8
X91.65Y-38.34
X91.65Y-40.88
X91.65Y-43.42
X135.519Y-38.1
X135.519Y-40.6
X135.519Y-43.1
X150.019Y-38.1
X150.019Y-43.1
T4
X81.915Y-54.61
X81.915Y-73.66
X81.915Y-92.71
X88.265Y-52.07
X88.265Y-71.12
X88.265Y-90.17
X100.965Y-54.61
X100.965Y-73.66
X100.965Y-92.71
X107.315Y-52.07
X107.315Y-71.12
X107.315Y-90.17
X120.015Y-54.61
X120.015Y-73.66
X120.015Y-92.71
X126.365Y-52.07
X126.365Y-71.12
X126.365Y-90.17
X139.065Y-54.61
X139.065Y-73.66
X139.065Y-92.71
X145.415Y-52.07
X145.415Y-71.12
X145.415Y-90.17
T4
G00X142.369Y-35.0
M15
G01X143.669Y-35.0
M16
G05
G00X142.369Y-46.2
M15
G01X143.669Y-46.2
M16
G05
M30
