M48
; DRILL file {KiCad 9.0.7} date 2026-01-31T21:15:10+0200
; FORMAT={-:-/ absolute / metric / decimal}
; #@! TF.CreationDate,2026-01-31T21:15:10+02:00
; #@! TF.GenerationSoftware,Kicad,Pcbnew,9.0.7
; #@! TF.FileFunction,NonPlated,1,2,NPTH
FMAT,2
METRIC
; #@! TA.AperFunction,NonPlated,NPTH,ComponentDrill
T1C1.700
; #@! TA.AperFunction,NonPlated,NPTH,ComponentDrill
T2C4.000
%
G90
G05
T1
X80.645Y-57.15
X80.645Y-76.2
X80.645Y-95.25
X90.805Y-57.15
X90.805Y-76.2
X90.805Y-95.25
X99.695Y-57.15
X99.695Y-76.2
X99.695Y-95.25
X109.855Y-57.15
X109.855Y-76.2
X109.855Y-95.25
X118.745Y-57.15
X118.745Y-76.2
X118.745Y-95.25
X128.905Y-57.15
X128.905Y-76.2
X128.905Y-95.25
X137.795Y-57.15
X137.795Y-76.2
X137.795Y-95.25
X147.955Y-57.15
X147.955Y-76.2
X147.955Y-95.25
T2
X85.725Y-57.15
X85.725Y-76.2
X85.725Y-95.25
X104.775Y-57.15
X104.775Y-76.2
X104.775Y-95.25
X123.825Y-57.15
X123.825Y-76.2
X123.825Y-95.25
X142.875Y-57.15
X142.875Y-76.2
X142.875Y-95.25
M30
