%TF.GenerationSoftware,KiCad,Pcbnew,9.0.7*%
%TF.CreationDate,2026-01-31T21:14:52+02:00*%
%TF.ProjectId,Hackpad,4861636b-7061-4642-9e6b-696361645f70,rev?*%
%TF.SameCoordinates,Original*%
%TF.FileFunction,Copper,L1,Top*%
%TF.FilePolarity,Positive*%
%FSLAX46Y46*%
G04 Gerber Fmt 4.6, Leading zero omitted, Abs format (unit mm)*
G04 Created by KiCad (PCBNEW 9.0.7) date 2026-01-31 21:14:52*
%MOMM*%
%LPD*%
G01*
G04 APERTURE LIST*
G04 Aperture macros list*
%AMRoundRect*
0 Rectangle with rounded corners*
0 $1 Rounding radius*
0 $2 $3 $4 $5 $6 $7 $8 $9 X,Y pos of 4 corners*
0 Add a 4 corners polygon primitive as box body*
4,1,4,$2,$3,$4,$5,$6,$7,$8,$9,$2,$3,0*
0 Add four circle primitives for the rounded corners*
1,1,$1+$1,$2,$3*
1,1,$1+$1,$4,$5*
1,1,$1+$1,$6,$7*
1,1,$1+$1,$8,$9*
0 Add four rect primitives between the rounded corners*
20,1,$1+$1,$2,$3,$4,$5,0*
20,1,$1+$1,$4,$5,$6,$7,0*
20,1,$1+$1,$6,$7,$8,$9,0*
20,1,$1+$1,$8,$9,$2,$3,0*%
G04 Aperture macros list end*
%TA.AperFunction,ComponentPad*%
%ADD10RoundRect,0.250000X0.550000X-0.550000X0.550000X0.550000X-0.550000X0.550000X-0.550000X-0.550000X0*%
%TD*%
%TA.AperFunction,ComponentPad*%
%ADD11C,1.600000*%
%TD*%
%TA.AperFunction,ComponentPad*%
%ADD12C,2.200000*%
%TD*%
%TA.AperFunction,ComponentPad*%
%ADD13RoundRect,0.250000X-0.550000X0.550000X-0.550000X-0.550000X0.550000X-0.550000X0.550000X0.550000X0*%
%TD*%
%TA.AperFunction,ComponentPad*%
%ADD14RoundRect,0.250000X-0.550000X-0.550000X0.550000X-0.550000X0.550000X0.550000X-0.550000X0.550000X0*%
%TD*%
%TA.AperFunction,ComponentPad*%
%ADD15R,1.700000X1.700000*%
%TD*%
%TA.AperFunction,ComponentPad*%
%ADD16O,1.700000X1.700000*%
%TD*%
%TA.AperFunction,ComponentPad*%
%ADD17R,2.000000X2.000000*%
%TD*%
%TA.AperFunction,ComponentPad*%
%ADD18C,2.000000*%
%TD*%
%TA.AperFunction,ComponentPad*%
%ADD19R,3.200000X2.000000*%
%TD*%
%TA.AperFunction,ViaPad*%
%ADD20C,0.600000*%
%TD*%
%TA.AperFunction,Conductor*%
%ADD21C,0.200000*%
%TD*%
G04 APERTURE END LIST*
D10*
%TO.P,D11,1,K*%
%TO.N,Net-(D10-K)*%
X133400000Y-99220000D03*
D11*
%TO.P,D11,2,A*%
%TO.N,Net-(D11-A)*%
X133400000Y-91600000D03*
%TD*%
D12*
%TO.P,SW9,1,1*%
%TO.N,Net-(D10-A)*%
X107315000Y-90170000D03*
%TO.P,SW9,2,2*%
%TO.N,Net-(U1-GPIO2_D8_SCK)*%
X100965000Y-92710000D03*
%TD*%
D10*
%TO.P,D1,1,K*%
%TO.N,Net-(D1-K)*%
X114400000Y-60820000D03*
D11*
%TO.P,D1,2,A*%
%TO.N,Net-(D1-A)*%
X114400000Y-53200000D03*
%TD*%
D12*
%TO.P,SW3,1,1*%
%TO.N,Net-(D3-A)*%
X145415000Y-52070000D03*
%TO.P,SW3,2,2*%
%TO.N,Net-(U1-GPIO1_D7_CSn_RX)*%
X139065000Y-54610000D03*
%TD*%
D10*
%TO.P,D4,1,K*%
%TO.N,Net-(D4-K)*%
X95200000Y-80420000D03*
D11*
%TO.P,D4,2,A*%
%TO.N,Net-(D4-A)*%
X95200000Y-72800000D03*
%TD*%
D10*
%TO.P,D2,1,K*%
%TO.N,Net-(D1-K)*%
X133400000Y-60810000D03*
D11*
%TO.P,D2,2,A*%
%TO.N,Net-(D2-A)*%
X133400000Y-53190000D03*
%TD*%
D12*
%TO.P,SW13,1,1*%
%TO.N,Net-(D5-A)*%
X88265000Y-52070000D03*
%TO.P,SW13,2,2*%
%TO.N,Net-(U1-GPIO4_D9_MISO)*%
X81915000Y-54610000D03*
%TD*%
D10*
%TO.P,D10,1,K*%
%TO.N,Net-(D10-K)*%
X114200000Y-99220000D03*
D11*
%TO.P,D10,2,A*%
%TO.N,Net-(D10-A)*%
X114200000Y-91600000D03*
%TD*%
D10*
%TO.P,D6,1,K*%
%TO.N,Net-(D4-K)*%
X114600000Y-80410000D03*
D11*
%TO.P,D6,2,A*%
%TO.N,Net-(D6-A)*%
X114600000Y-72790000D03*
%TD*%
D12*
%TO.P,SW5,1,1*%
%TO.N,Net-(D6-A)*%
X107315000Y-71120000D03*
%TO.P,SW5,2,2*%
%TO.N,Net-(U1-GPIO2_D8_SCK)*%
X100965000Y-73660000D03*
%TD*%
D13*
%TO.P,D9,1,K*%
%TO.N,Net-(D10-K)*%
X95400000Y-90980000D03*
D11*
%TO.P,D9,2,A*%
%TO.N,Net-(D9-A)*%
X95400000Y-98600000D03*
%TD*%
D12*
%TO.P,SW2,1,1*%
%TO.N,Net-(D2-A)*%
X126365000Y-52070000D03*
%TO.P,SW2,2,2*%
%TO.N,Net-(U1-GPIO0_D6_TX)*%
X120015000Y-54610000D03*
%TD*%
%TO.P,SW6,1,1*%
%TO.N,Net-(D7-A)*%
X126365000Y-71120000D03*
%TO.P,SW6,2,2*%
%TO.N,Net-(U1-GPIO0_D6_TX)*%
X120015000Y-73660000D03*
%TD*%
D10*
%TO.P,D7,1,K*%
%TO.N,Net-(D4-K)*%
X134000000Y-80620000D03*
D11*
%TO.P,D7,2,A*%
%TO.N,Net-(D7-A)*%
X134000000Y-73000000D03*
%TD*%
D12*
%TO.P,SW8,1,1*%
%TO.N,Net-(D9-A)*%
X88265000Y-90170000D03*
%TO.P,SW8,2,2*%
%TO.N,Net-(U1-GPIO4_D9_MISO)*%
X81915000Y-92710000D03*
%TD*%
D14*
%TO.P,D12,1,K*%
%TO.N,Net-(D10-K)*%
X139200000Y-85800000D03*
D11*
%TO.P,D12,2,A*%
%TO.N,Net-(D12-A)*%
X146820000Y-85800000D03*
%TD*%
D15*
%TO.P,J1,1,Pin_1*%
%TO.N,GND*%
X91650000Y-43420000D03*
D16*
%TO.P,J1,2,Pin_2*%
%TO.N,+3.3V*%
X91650000Y-40880000D03*
%TO.P,J1,3,Pin_3*%
%TO.N,SCL*%
X91650000Y-38340000D03*
%TO.P,J1,4,Pin_4*%
%TO.N,SDA*%
X91650000Y-35800000D03*
%TD*%
D12*
%TO.P,SW11,1,1*%
%TO.N,Net-(D12-A)*%
X145415000Y-90170000D03*
%TO.P,SW11,2,2*%
%TO.N,Net-(U1-GPIO1_D7_CSn_RX)*%
X139065000Y-92710000D03*
%TD*%
D14*
%TO.P,D8,1,K*%
%TO.N,Net-(D4-K)*%
X114590000Y-66600000D03*
D11*
%TO.P,D8,2,A*%
%TO.N,Net-(D8-A)*%
X122210000Y-66600000D03*
%TD*%
D10*
%TO.P,D5,1,K*%
%TO.N,Net-(D1-K)*%
X95000000Y-61810000D03*
D11*
%TO.P,D5,2,A*%
%TO.N,Net-(D5-A)*%
X95000000Y-54190000D03*
%TD*%
D14*
%TO.P,D3,1,K*%
%TO.N,Net-(D1-K)*%
X138980000Y-66400000D03*
D11*
%TO.P,D3,2,A*%
%TO.N,Net-(D3-A)*%
X146600000Y-66400000D03*
%TD*%
D12*
%TO.P,SW4,1,1*%
%TO.N,Net-(D4-A)*%
X88265000Y-71120000D03*
%TO.P,SW4,2,2*%
%TO.N,Net-(U1-GPIO4_D9_MISO)*%
X81915000Y-73660000D03*
%TD*%
%TO.P,SW10,1,1*%
%TO.N,Net-(D11-A)*%
X126365000Y-90170000D03*
%TO.P,SW10,2,2*%
%TO.N,Net-(U1-GPIO0_D6_TX)*%
X120015000Y-92710000D03*
%TD*%
D17*
%TO.P,SW17,A,A*%
%TO.N,Net-(U1-GPIO3_D10_MOSI)*%
X135518750Y-38100000D03*
D18*
%TO.P,SW17,B,B*%
%TO.N,Net-(U1-GPIO29_A3_D3)*%
X135518750Y-43100000D03*
%TO.P,SW17,C,C*%
%TO.N,GND*%
X135518750Y-40600000D03*
D19*
%TO.P,SW17,MP*%
%TO.N,N/C*%
X143018750Y-35000000D03*
X143018750Y-46200000D03*
D18*
%TO.P,SW17,S1*%
X150018750Y-43100000D03*
%TO.P,SW17,S2*%
X150018750Y-38100000D03*
%TD*%
D12*
%TO.P,SW7,1,1*%
%TO.N,Net-(D8-A)*%
X145415000Y-71120000D03*
%TO.P,SW7,2,2*%
%TO.N,Net-(U1-GPIO1_D7_CSn_RX)*%
X139065000Y-73660000D03*
%TD*%
%TO.P,SW1,1,1*%
%TO.N,Net-(D1-A)*%
X107315000Y-52070000D03*
%TO.P,SW1,2,2*%
%TO.N,Net-(U1-GPIO2_D8_SCK)*%
X100965000Y-54610000D03*
%TD*%
D20*
%TO.N,Net-(D1-K)*%
X78310000Y-42570000D03*
X70430000Y-42020000D03*
%TO.N,Net-(D4-K)*%
X108260000Y-49240000D03*
%TO.N,Net-(D10-K)*%
X71270000Y-49890000D03*
%TO.N,SCL*%
X76460000Y-45920000D03*
%TO.N,+3.3V*%
X88750000Y-43340000D03*
%TO.N,GND*%
X86590000Y-39420000D03*
X58100000Y-35720000D03*
%TO.N,SDA*%
X76190000Y-43400000D03*
%TO.N,Net-(U1-GPIO2_D8_SCK)*%
X80090000Y-50970000D03*
%TO.N,Net-(U1-GPIO0_D6_TX)*%
X78660000Y-48410000D03*
%TO.N,Net-(U1-GPIO1_D7_CSn_RX)*%
X128920000Y-74540000D03*
X118780000Y-80020000D03*
X115101000Y-70440000D03*
%TO.N,Net-(U1-GPIO3_D10_MOSI)*%
X61110000Y-40850000D03*
X84170000Y-35420000D03*
X82940735Y-36619265D03*
%TO.N,Net-(U1-GPIO29_A3_D3)*%
X86620000Y-44980000D03*
%TD*%
D21*
%TO.N,Net-(D1-K)*%
X70980000Y-42570000D02*
X70430000Y-42020000D01*
X78310000Y-42570000D02*
X70980000Y-42570000D01*
%TO.N,Net-(D4-K)*%
X108260000Y-49240000D02*
X112050000Y-53030000D01*
X112050000Y-53030000D02*
X112050000Y-64060000D01*
X112050000Y-64060000D02*
X114590000Y-66600000D01*
%TO.N,Net-(D10-K)*%
X89920000Y-85500000D02*
X95400000Y-90980000D01*
X73430000Y-85500000D02*
X89920000Y-85500000D01*
X71270000Y-49890000D02*
X73430000Y-52050000D01*
X73430000Y-52050000D02*
X73430000Y-85500000D01*
%TO.N,SCL*%
X84070000Y-45920000D02*
X76460000Y-45920000D01*
X91650000Y-38340000D02*
X84070000Y-45920000D01*
%TO.N,+3.3V*%
X89190000Y-43340000D02*
X91650000Y-40880000D01*
X88750000Y-43340000D02*
X89190000Y-43340000D01*
%TO.N,GND*%
X58100000Y-35720000D02*
X62919000Y-30901000D01*
X72000000Y-30901000D02*
X78071000Y-30901000D01*
X132698750Y-43420000D02*
X91650000Y-43420000D01*
X62919000Y-30901000D02*
X72000000Y-30901000D01*
X135518750Y-40600000D02*
X132698750Y-43420000D01*
X78071000Y-30901000D02*
X86590000Y-39420000D01*
%TO.N,SDA*%
X84050000Y-43400000D02*
X76190000Y-43400000D01*
X91650000Y-35800000D02*
X84050000Y-43400000D01*
%TO.N,Net-(U1-GPIO2_D8_SCK)*%
X97024000Y-50669000D02*
X100965000Y-54610000D01*
X100965000Y-54610000D02*
X100965000Y-73660000D01*
X80391000Y-50669000D02*
X97024000Y-50669000D01*
X100965000Y-73660000D02*
X100965000Y-92710000D01*
X80090000Y-50970000D02*
X80391000Y-50669000D01*
%TO.N,Net-(U1-GPIO0_D6_TX)*%
X78660000Y-48410000D02*
X113815000Y-48410000D01*
X120015000Y-73660000D02*
X120015000Y-92710000D01*
X120015000Y-54610000D02*
X120015000Y-73660000D01*
X113815000Y-48410000D02*
X120015000Y-54610000D01*
%TO.N,Net-(U1-GPIO1_D7_CSn_RX)*%
X117544000Y-72883000D02*
X117544000Y-78784000D01*
X139065000Y-84048840D02*
X138099000Y-85014840D01*
X139065000Y-54610000D02*
X139065000Y-57578470D01*
X139065000Y-73660000D02*
X139065000Y-84048840D01*
X137879000Y-58764470D02*
X137879000Y-72474000D01*
X139065000Y-57578470D02*
X137879000Y-58764470D01*
X138099000Y-85014840D02*
X138099000Y-91744000D01*
X133060000Y-70400000D02*
X135805000Y-70400000D01*
X138099000Y-91744000D02*
X139065000Y-92710000D01*
X137879000Y-72474000D02*
X139065000Y-73660000D01*
X128920000Y-74540000D02*
X133060000Y-70400000D01*
X115101000Y-70440000D02*
X117544000Y-72883000D01*
X135805000Y-70400000D02*
X139065000Y-73660000D01*
X117544000Y-78784000D02*
X118780000Y-80020000D01*
%TO.N,Net-(U1-GPIO3_D10_MOSI)*%
X82940735Y-36619265D02*
X78710000Y-40850000D01*
X84941000Y-34649000D02*
X84170000Y-35420000D01*
X132067750Y-34649000D02*
X84941000Y-34649000D01*
X135518750Y-38100000D02*
X132067750Y-34649000D01*
X78710000Y-40850000D02*
X61110000Y-40850000D01*
%TO.N,Net-(U1-GPIO29_A3_D3)*%
X135518750Y-43100000D02*
X133638750Y-44980000D01*
X133638750Y-44980000D02*
X86620000Y-44980000D01*
%TD*%
M02*
